<?xml version="1.0" encoding="UTF-8" standalone="no"?>
<!DOCTYPE svg PUBLIC "-//W3C//DTD SVG 1.1//EN"
 "http://www.w3.org/Graphics/SVG/1.1/DTD/svg11.dtd">
<!-- Generated by graphviz version 15.0.0 (20260523.1842)
 -->
<!-- Title: koku_iam_erd Pages: 1 -->
<svg width="787pt" height="1076pt"
 viewBox="0.00 0.00 787.00 1076.00" xmlns="http://www.w3.org/2000/svg" xmlns:xlink="http://www.w3.org/1999/xlink">
<g id="graph0" class="graph" transform="scale(1 1) rotate(0) translate(4 1072.25)">
<title>koku_iam_erd</title>
<polygon fill="white" stroke="none" points="-4,4 -4,-1072.25 783.38,-1072.25 783.38,4 -4,4"/>
<text xml:space="preserve" text-anchor="middle" x="389.69" y="-1049.05" font-family="Arial Bold" font-size="16.00">Koku IAM Database Schema (COST&#45;7342)</text>
<text xml:space="preserve" text-anchor="middle" x="389.69" y="-1030.3" font-family="Arial Bold" font-size="16.00">Public Schema Tables</text>
<!-- customer -->
<g id="node1" class="node">
<title>customer</title>
<polygon fill="lightblue" stroke="none" points="9,-449.75 9,-479.5 211.75,-479.5 211.75,-449.75 9,-449.75"/>
<polygon fill="none" stroke="black" points="9,-449.75 9,-479.5 211.75,-479.5 211.75,-449.75 9,-449.75"/>
<text xml:space="preserve" text-anchor="start" x="66.12" y="-460.2" font-family="Arial" font-weight="bold" font-size="14.00">api_customer</text>
<polygon fill="none" stroke="black" points="9,-420 9,-449.75 44,-449.75 44,-420 9,-420"/>
<text xml:space="preserve" text-anchor="start" x="16" y="-430" font-family="Arial" font-size="14.00">PK</text>
<polygon fill="none" stroke="black" points="44,-420 44,-449.75 211.75,-449.75 211.75,-420 44,-420"/>
<text xml:space="preserve" text-anchor="start" x="51" y="-430" font-family="Arial" font-size="14.00">id: integer</text>
<polygon fill="none" stroke="black" points="9,-390.25 9,-420 44,-420 44,-390.25 9,-390.25"/>
<text xml:space="preserve" text-anchor="start" x="16" y="-400.25" font-family="Arial" font-size="14.00">UQ</text>
<polygon fill="lightyellow" stroke="none" points="44,-390.25 44,-420 211.75,-420 211.75,-390.25 44,-390.25"/>
<polygon fill="none" stroke="black" points="44,-390.25 44,-420 211.75,-420 211.75,-390.25 44,-390.25"/>
<text xml:space="preserve" text-anchor="start" x="51" y="-400.7" font-family="Arial" font-weight="bold" font-size="14.00">org_id: varchar(36)</text>
<polygon fill="none" stroke="black" points="9,-360.5 9,-390.25 44,-390.25 44,-360.5 9,-360.5"/>
<text xml:space="preserve" text-anchor="start" x="16" y="-370.5" font-family="Arial" font-size="14.00">UQ</text>
<polygon fill="none" stroke="black" points="44,-360.5 44,-390.25 211.75,-390.25 211.75,-360.5 44,-360.5"/>
<text xml:space="preserve" text-anchor="start" x="51" y="-370.5" font-family="Arial" font-size="14.00">account_id: varchar(150)</text>
<polygon fill="none" stroke="black" points="9,-330.75 9,-360.5 44,-360.5 44,-330.75 9,-330.75"/>
<text xml:space="preserve" text-anchor="start" x="16" y="-340.75" font-family="Arial" font-size="14.00">UQ</text>
<polygon fill="lightgreen" stroke="none" points="44,-330.75 44,-360.5 211.75,-360.5 211.75,-330.75 44,-330.75"/>
<polygon fill="none" stroke="black" points="44,-330.75 44,-360.5 211.75,-360.5 211.75,-330.75 44,-330.75"/>
<text xml:space="preserve" text-anchor="start" x="51" y="-341.2" font-family="Arial" font-weight="bold" font-size="14.00">schema_name: text</text>
<polygon fill="none" stroke="black" points="9,-301 9,-330.75 44,-330.75 44,-301 9,-301"/>
<polygon fill="none" stroke="black" points="44,-301 44,-330.75 211.75,-330.75 211.75,-301 44,-301"/>
<text xml:space="preserve" text-anchor="start" x="51" y="-311" font-family="Arial" font-size="14.00">uuid: uuid</text>
<polygon fill="none" stroke="black" points="9,-271.25 9,-301 44,-301 44,-271.25 9,-271.25"/>
<polygon fill="none" stroke="black" points="44,-271.25 44,-301 211.75,-301 211.75,-271.25 44,-271.25"/>
<text xml:space="preserve" text-anchor="start" x="51" y="-281.25" font-family="Arial" font-size="14.00">date_created: timestamp</text>
<polygon fill="none" stroke="black" points="9,-241.5 9,-271.25 44,-271.25 44,-241.5 9,-241.5"/>
<polygon fill="none" stroke="black" points="44,-241.5 44,-271.25 211.75,-271.25 211.75,-241.5 44,-241.5"/>
<text xml:space="preserve" text-anchor="start" x="51" y="-251.5" font-family="Arial" font-size="14.00">date_updated: timestamp</text>
<polygon fill="none" stroke="black" points="8,-240.5 8,-480.5 212.75,-480.5 212.75,-240.5 8,-240.5"/>
</g>
<!-- tenant -->
<g id="node3" class="node">
<title>tenant</title>
<polygon fill="lightblue" stroke="none" points="317.12,-375.38 317.12,-405.12 541.62,-405.12 541.62,-375.38 317.12,-375.38"/>
<polygon fill="none" stroke="black" points="317.12,-375.38 317.12,-405.12 541.62,-405.12 541.62,-375.38 317.12,-375.38"/>
<text xml:space="preserve" text-anchor="start" x="395.62" y="-385.82" font-family="Arial" font-weight="bold" font-size="14.00">api_tenant</text>
<polygon fill="none" stroke="black" points="317.12,-345.62 317.12,-375.38 352.12,-375.38 352.12,-345.62 317.12,-345.62"/>
<text xml:space="preserve" text-anchor="start" x="324.12" y="-355.62" font-family="Arial" font-size="14.00">PK</text>
<polygon fill="none" stroke="black" points="352.12,-345.62 352.12,-375.38 541.62,-375.38 541.62,-345.62 352.12,-345.62"/>
<text xml:space="preserve" text-anchor="start" x="359.12" y="-355.62" font-family="Arial" font-size="14.00">id: integer</text>
<polygon fill="none" stroke="black" points="317.12,-315.88 317.12,-345.62 352.12,-345.62 352.12,-315.88 317.12,-315.88"/>
<text xml:space="preserve" text-anchor="start" x="324.12" y="-325.88" font-family="Arial" font-size="14.00">UQ</text>
<polygon fill="lightgreen" stroke="none" points="352.12,-315.88 352.12,-345.62 541.62,-345.62 541.62,-315.88 352.12,-315.88"/>
<polygon fill="none" stroke="black" points="352.12,-315.88 352.12,-345.62 541.62,-345.62 541.62,-315.88 352.12,-315.88"/>
<text xml:space="preserve" text-anchor="start" x="359.12" y="-326.32" font-family="Arial" font-weight="bold" font-size="14.00">schema_name: varchar(63)</text>
<polygon fill="none" stroke="black" points="316.12,-314.88 316.12,-406.12 542.62,-406.12 542.62,-314.88 316.12,-314.88"/>
</g>
<!-- customer&#45;&gt;tenant -->
<g id="edge2" class="edge">
<title>customer&#45;&gt;tenant</title>
<path fill="none" stroke="darkgreen" stroke-width="2" stroke-dasharray="5,2" d="M220.6,-360.5C244.68,-360.5 270.42,-360.5 295.31,-360.5"/>
<polygon fill="darkgreen" stroke="darkgreen" stroke-width="2" points="295.21,-364 305.21,-360.5 295.21,-357 295.21,-364"/>
<text xml:space="preserve" text-anchor="middle" x="264.44" y="-378" font-family="Arial" font-size="10.00"> &#160;schema_name</text>
<text xml:space="preserve" text-anchor="middle" x="264.44" y="-366" font-family="Arial" font-size="10.00"> &#160;(lookup) &#160;</text>
</g>
<!-- user -->
<g id="node2" class="node">
<title>user</title>
<polygon fill="lightblue" stroke="none" points="229.75,-988 229.75,-1017.75 485,-1017.75 485,-988 229.75,-988"/>
<polygon fill="none" stroke="black" points="229.75,-988 229.75,-1017.75 485,-1017.75 485,-988 229.75,-988"/>
<text xml:space="preserve" text-anchor="start" x="329.62" y="-998.45" font-family="Arial" font-weight="bold" font-size="14.00">api_user</text>
<polygon fill="none" stroke="black" points="229.75,-958.25 229.75,-988 264.75,-988 264.75,-958.25 229.75,-958.25"/>
<text xml:space="preserve" text-anchor="start" x="236.75" y="-968.25" font-family="Arial" font-size="14.00">PK</text>
<polygon fill="none" stroke="black" points="264.75,-958.25 264.75,-988 485,-988 485,-958.25 264.75,-958.25"/>
<text xml:space="preserve" text-anchor="start" x="271.75" y="-968.25" font-family="Arial" font-size="14.00">id: integer</text>
<polygon fill="none" stroke="black" points="229.75,-928.5 229.75,-958.25 264.75,-958.25 264.75,-928.5 229.75,-928.5"/>
<text xml:space="preserve" text-anchor="start" x="236.75" y="-938.5" font-family="Arial" font-size="14.00">UQ</text>
<polygon fill="pink" stroke="none" points="264.75,-928.5 264.75,-958.25 485,-958.25 485,-928.5 264.75,-928.5"/>
<polygon fill="none" stroke="black" points="264.75,-928.5 264.75,-958.25 485,-958.25 485,-928.5 264.75,-928.5"/>
<text xml:space="preserve" text-anchor="start" x="271.75" y="-938.95" font-family="Arial" font-weight="bold" font-size="14.00">username: varchar(150)</text>
<polygon fill="none" stroke="black" points="229.75,-898.75 229.75,-928.5 264.75,-928.5 264.75,-898.75 229.75,-898.75"/>
<polygon fill="none" stroke="black" points="264.75,-898.75 264.75,-928.5 485,-928.5 485,-898.75 264.75,-898.75"/>
<text xml:space="preserve" text-anchor="start" x="271.75" y="-908.75" font-family="Arial" font-size="14.00">uuid: uuid</text>
<polygon fill="none" stroke="black" points="229.75,-869 229.75,-898.75 264.75,-898.75 264.75,-869 229.75,-869"/>
<polygon fill="none" stroke="black" points="264.75,-869 264.75,-898.75 485,-898.75 485,-869 264.75,-869"/>
<text xml:space="preserve" text-anchor="start" x="271.75" y="-879" font-family="Arial" font-size="14.00">email: varchar(254)</text>
<polygon fill="none" stroke="black" points="229.75,-839.25 229.75,-869 264.75,-869 264.75,-839.25 229.75,-839.25"/>
<polygon fill="none" stroke="black" points="264.75,-839.25 264.75,-869 485,-869 485,-839.25 264.75,-839.25"/>
<text xml:space="preserve" text-anchor="start" x="271.75" y="-849.25" font-family="Arial" font-size="14.00">date_created: timestamp</text>
<polygon fill="none" stroke="black" points="229.75,-809.5 229.75,-839.25 264.75,-839.25 264.75,-809.5 229.75,-809.5"/>
<polygon fill="none" stroke="black" points="264.75,-809.5 264.75,-839.25 485,-839.25 485,-809.5 264.75,-809.5"/>
<text xml:space="preserve" text-anchor="start" x="271.75" y="-819.5" font-family="Arial" font-size="14.00">is_active: boolean</text>
<polygon fill="none" stroke="black" points="229.75,-779.75 229.75,-809.5 264.75,-809.5 264.75,-779.75 229.75,-779.75"/>
<text xml:space="preserve" text-anchor="start" x="236.75" y="-789.75" font-family="Arial" font-size="14.00">FK</text>
<polygon fill="lightblue" stroke="none" points="264.75,-779.75 264.75,-809.5 485,-809.5 485,-779.75 264.75,-779.75"/>
<polygon fill="none" stroke="black" points="264.75,-779.75 264.75,-809.5 485,-809.5 485,-779.75 264.75,-779.75"/>
<text xml:space="preserve" text-anchor="start" x="271.75" y="-790.2" font-family="Arial" font-weight="bold" font-size="14.00">customer_id → api_customer.id</text>
<polygon fill="none" stroke="black" points="228.75,-778.75 228.75,-1018.75 486,-1018.75 486,-778.75 228.75,-778.75"/>
</g>
<!-- user&#45;&gt;customer -->
<g id="edge1" class="edge">
<title>user&#45;&gt;customer</title>
<path fill="none" stroke="blue" stroke-width="2" d="M221.01,-839.09C175.2,-811.99 129.26,-774.94 103.62,-726.75 66.67,-657.29 67.12,-569.38 77.39,-497.21"/>
<polygon fill="blue" stroke="blue" stroke-width="2" points="80.85,-497.8 78.89,-487.39 73.93,-496.74 80.85,-497.8"/>
<text xml:space="preserve" text-anchor="middle" x="149" y="-625.92" font-family="Arial" font-size="11.00"> &#160;FK: customer_id &#160;</text>
</g>
<!-- problem -->
<g id="node6" class="node">
<title>problem</title>
<polygon fill="pink" stroke="none" points="213.25,-686 213.25,-720.75 501.5,-720.75 501.5,-686 213.25,-686"/>
<text xml:space="preserve" text-anchor="start" x="313.88" y="-700.45" font-family="Arial" font-weight="bold" font-size="14.00">⚠️ PROBLEM</text>
<text xml:space="preserve" text-anchor="start" x="224.25" y="-665.25" font-family="Arial" font-size="14.00">username is UNIQUE</text>
<text xml:space="preserve" text-anchor="start" x="221.25" y="-649.5" font-family="Arial" font-size="14.00">across ALL customers!</text>
<text xml:space="preserve" text-anchor="start" x="294.38" y="-604.2" font-family="Arial" font-weight="bold" font-size="14.00">After Stage refresh:</text>
<text xml:space="preserve" text-anchor="start" x="274.12" y="-590.2" font-family="Arial" font-size="14.00"> &#160;&#160;&#160;&#160;&#160;&#160;&#160;&#160;&#160;&#160;&#160;• New org_id arrives</text>
<text xml:space="preserve" text-anchor="start" x="253.88" y="-576.2" font-family="Arial" font-size="14.00"> &#160;&#160;&#160;&#160;&#160;&#160;&#160;&#160;&#160;&#160;&#160;• New Customer created ✓</text>
<text xml:space="preserve" text-anchor="start" x="272.25" y="-562.2" font-family="Arial" font-size="14.00"> &#160;&#160;&#160;&#160;&#160;&#160;&#160;&#160;&#160;&#160;&#160;• But old User blocks</text>
<text xml:space="preserve" text-anchor="start" x="221.25" y="-548.2" font-family="Arial" font-size="14.00"> &#160;&#160;&#160;&#160;&#160;&#160;&#160;&#160;&#160;&#160;&#160;&#160;&#160;new User creation ✗ &#160;&#160;&#160;&#160;&#160;&#160;&#160;&#160;&#160;&#160;&#160;</text>
<polygon fill="none" stroke="black" stroke-width="2" points="212.25,-537.5 212.25,-721.75 502.5,-721.75 502.5,-537.5 212.25,-537.5"/>
</g>
<!-- user&#45;&gt;problem -->
<g id="edge6" class="edge">
<title>user&#45;&gt;problem</title>
<path fill="none" stroke="red" stroke-dasharray="1,5" d="M357.38,-775.13C357.38,-762.64 357.38,-750.01 357.38,-737.7"/>
<polygon fill="red" stroke="red" points="360.88,-738.01 357.38,-728.01 353.88,-738.01 360.88,-738.01"/>
</g>
<!-- pg_schema -->
<g id="node4" class="node">
<title>pg_schema</title>
<polygon fill="orange" stroke="none" points="348.5,-153.75 348.5,-183.5 510.25,-183.5 510.25,-153.75 348.5,-153.75"/>
<polygon fill="none" stroke="black" points="348.5,-153.75 348.5,-183.5 510.25,-183.5 510.25,-153.75 348.5,-153.75"/>
<text xml:space="preserve" text-anchor="start" x="361.88" y="-164.2" font-family="Arial" font-weight="bold" font-size="14.00">PostgreSQL Schema</text>
<polygon fill="none" stroke="black" points="348.5,-124 348.5,-153.75 510.25,-153.75 510.25,-124 348.5,-124"/>
<text xml:space="preserve" text-anchor="start" x="355.5" y="-134" font-family="Arial" font-size="14.00">org&lt;org_id&gt;</text>
<polygon fill="none" stroke="black" points="348.5,-94.25 348.5,-124 510.25,-124 510.25,-94.25 348.5,-94.25"/>
<text xml:space="preserve" text-anchor="start" x="355.5" y="-104.25" font-family="Arial" font-size="14.00">(e.g., org12345678_test)</text>
<polygon fill="none" stroke="black" points="348.5,-64.5 348.5,-94.25 510.25,-94.25 510.25,-64.5 348.5,-64.5"/>
<text xml:space="preserve" text-anchor="start" x="355.5" y="-58.83" font-family="Arial" font-size="14.00">Contains:</text>
<polygon fill="none" stroke="black" points="348.5,-34.75 348.5,-64.5 510.25,-64.5 510.25,-34.75 348.5,-34.75"/>
<text xml:space="preserve" text-anchor="start" x="355.5" y="-44.75" font-family="Arial" font-size="14.00">• reporting_* tables</text>
<polygon fill="none" stroke="black" points="348.5,-5 348.5,-34.75 510.25,-34.75 510.25,-5 348.5,-5"/>
<text xml:space="preserve" text-anchor="start" x="355.5" y="-15" font-family="Arial" font-size="14.00">• cost_models_* tables</text>
<polygon fill="none" stroke="black" points="347.5,-4 347.5,-184.5 511.25,-184.5 511.25,-4 347.5,-4"/>
</g>
<!-- tenant&#45;&gt;pg_schema -->
<g id="edge3" class="edge">
<title>tenant&#45;&gt;pg_schema</title>
<path fill="none" stroke="orange" stroke-width="1.5" stroke-dasharray="5,2" d="M429.38,-311.03C429.38,-279.98 429.38,-238.44 429.38,-200.11"/>
<polygon fill="orange" stroke="orange" stroke-width="1.5" points="432.88,-200.6 429.38,-190.6 425.88,-200.6 432.88,-200.6"/>
<text xml:space="preserve" text-anchor="middle" x="451.12" y="-209" font-family="Arial" font-size="10.00"> &#160;defines &#160;</text>
</g>
<!-- header -->
<g id="node5" class="node">
<title>header</title>
<polygon fill="lavender" stroke="none" points="538.38,-659.38 538.38,-689.12 770.38,-689.12 770.38,-659.38 538.38,-659.38"/>
<polygon fill="none" stroke="black" points="538.38,-659.38 538.38,-689.12 770.38,-689.12 770.38,-659.38 538.38,-659.38"/>
<text xml:space="preserve" text-anchor="start" x="590.62" y="-669.83" font-family="Arial" font-weight="bold" font-size="14.00">x&#45;rh&#45;identity Header</text>
<polygon fill="none" stroke="black" points="538.38,-629.62 538.38,-659.38 657.38,-659.38 657.38,-629.62 538.38,-629.62"/>
<text xml:space="preserve" text-anchor="start" x="545.38" y="-639.62" font-family="Arial" font-size="14.00">org_id:</text>
<polygon fill="none" stroke="black" points="657.38,-629.62 657.38,-659.38 770.38,-659.38 770.38,-629.62 657.38,-629.62"/>
<text xml:space="preserve" text-anchor="start" x="664.38" y="-639.62" font-family="Arial" font-size="14.00">20013903_test</text>
<polygon fill="none" stroke="black" points="538.38,-599.88 538.38,-629.62 657.38,-629.62 657.38,-599.88 538.38,-599.88"/>
<text xml:space="preserve" text-anchor="start" x="545.38" y="-609.88" font-family="Arial" font-size="14.00">account_number:</text>
<polygon fill="none" stroke="black" points="657.38,-599.88 657.38,-629.62 770.38,-629.62 770.38,-599.88 657.38,-599.88"/>
<text xml:space="preserve" text-anchor="start" x="664.38" y="-609.88" font-family="Arial" font-size="14.00">12679052</text>
<polygon fill="none" stroke="black" points="538.38,-570.12 538.38,-599.88 657.38,-599.88 657.38,-570.12 538.38,-570.12"/>
<text xml:space="preserve" text-anchor="start" x="545.38" y="-580.12" font-family="Arial" font-size="14.00">username:</text>
<polygon fill="none" stroke="black" points="657.38,-570.12 657.38,-599.88 770.38,-599.88 770.38,-570.12 657.38,-570.12"/>
<text xml:space="preserve" text-anchor="start" x="664.38" y="-580.12" font-family="Arial" font-size="14.00">rapidast&#45;security</text>
<polygon fill="none" stroke="black" points="537.38,-569.12 537.38,-690.12 771.38,-690.12 771.38,-569.12 537.38,-569.12"/>
</g>
<!-- header&#45;&gt;customer -->
<g id="edge4" class="edge">
<title>header&#45;&gt;customer</title>
<path fill="none" stroke="blue" stroke-width="2" stroke-dasharray="1,5" d="M577.21,-565.24C559.36,-552.92 539.87,-541.16 520.38,-532.5 428.52,-491.69 392.13,-523.22 299.38,-484.5 276.5,-474.95 253.39,-462.61 231.54,-449.43"/>
<polygon fill="blue" stroke="blue" stroke-width="2" points="233.52,-446.54 223.17,-444.28 229.85,-452.5 233.52,-446.54"/>
<text xml:space="preserve" text-anchor="middle" x="497.15" y="-505" font-family="Arial" font-size="10.00"> &#160;org_id lookup &#160;</text>
</g>
<!-- header&#45;&gt;user -->
<g id="edge5" class="edge">
<title>header&#45;&gt;user</title>
<path fill="none" stroke="red" stroke-width="2" stroke-dasharray="1,5" d="M584.07,-693.86C559.71,-715.77 531.41,-741.22 503.25,-766.55"/>
<polygon fill="red" stroke="red" stroke-width="2" points="501.05,-763.82 495.96,-773.11 505.73,-769.02 501.05,-763.82"/>
<text xml:space="preserve" text-anchor="middle" x="566.78" y="-747.25" font-family="Arial" font-size="10.00"> &#160;username lookup &#160;</text>
</g>
</g>
</svg>
